<svg preserveAspectRatio="none" overflow="visible" style="display: block;" width="20" height="19.1667" viewBox="0 0 20 19.1667" fill="none" xmlns="http://www.w3.org/2000/svg">
<g id="L3X9nEp6yItpOeCu4Yk35oBMas.svg" clip-path="url(#clip0_0_4)">
<path id="Vector" d="M19.9473 7.24262C19.8836 7.04428 19.7629 6.86913 19.6001 6.73912C19.4373 6.60912 19.2398 6.53004 19.0323 6.51179L13.2598 5.98762L10.9773 0.645124C10.8953 0.4538 10.7589 0.290757 10.5851 0.176211C10.4113 0.0616644 10.2077 0.000653045 9.99953 0.000741776C9.79137 0.000830506 9.58781 0.0620154 9.4141 0.17671C9.24038 0.291404 9.10415 0.454564 9.0223 0.645957L6.7398 5.98762L0.966469 6.51262C0.759054 6.53121 0.561675 6.61034 0.39886 6.74018C0.236046 6.87002 0.114976 7.04484 0.0506965 7.24292C-0.0135831 7.441 -0.0182381 7.6536 0.0373101 7.8543C0.0928583 8.055 0.20616 8.23495 0.363136 8.37179L4.72647 12.1993L3.4398 17.866C3.39333 18.0689 3.4075 18.281 3.48056 18.476C3.55362 18.6709 3.68235 18.8401 3.85075 18.9626C4.01915 19.085 4.21981 19.1552 4.4278 19.1646C4.63578 19.1739 4.84193 19.1219 5.02064 19.0151L9.9998 16.0393L14.9773 19.0151C15.156 19.1217 15.362 19.1735 15.5699 19.1641C15.7778 19.1547 15.9783 19.0846 16.1467 18.9623C16.315 18.8401 16.4438 18.6711 16.5171 18.4764C16.5904 18.2817 16.605 18.0697 16.559 17.8668L15.2723 12.1985L19.6356 8.37346C19.9565 8.09179 20.079 7.64846 19.9473 7.24262Z" fill="#FDFBF5"/>
</g>
<defs>
<clipPath id="clip0_0_4">
<rect width="20" height="19.1667" fill="white"/>
</clipPath>
</defs>
</svg>
